# xmcd
#
# Track frame offsets: 
#        150
#        13106
#        25307
#        37777
#        50337
#        62909
#        73865
#        88998
#        102845
#        115899
#        128408
#        140250
#        154309
#        168637
#        184097
#        198522
#        211534
#        224109
#        237776
#        250353
#        264473
#        278490
#        290201
#        302802
#        316367
#
# Disc length: 4386 seconds
#
# Revision: 1
# Processed by: cddbd v1.5.1PL0 Copyright (c) Steve Scherf et al.
# Submitted via: ExactAudioCopy v0.95a5
#
DISCID=77112019
DTITLE=Various Artist - Divas Sing the Blues
DYEAR=2002
DGENRE=Blues
TTITLE0=Stella Johnson - Don't Come Over (with Dorothy Scott's Rhythm 
TTITLE0=Boys)
TTITLE1=Hannah May - Pussy Cat, Pussy Cat
TTITLE2=Mae Glover - Gas Man Blues
TTITLE3=Bessie Smith - Need a Little Sugar in My Bowl
TTITLE4=Trixie Smith - My Daddy Rocks Me #2
TTITLE5=Doretha Trowbridge - Steady Grindin'
TTITLE6=Lizzie Miles - My Man O' War
TTITLE7=Isabel Sykes - In Here With Your Heavy Stuff
TTITLE8=Lil Johnson - Meat Balls
TTITLE9=Memphis Minnie - Dirty Mother for You
TTITLE10=Marilyn Scott - I Got What My Daddy Likes
TTITLE11=Kansas City Kitty - Show Me What You Got
TTITLE12=Lil Johnson - Press My Button (Ring My Bell)
TTITLE13=Lucille Bogan - Coffee Grindin' Blues
TTITLE14=Lizzie Miles - Electrician Blues
TTITLE15=Lil Johnson - My Stove's in Good Condition
TTITLE16=Merline Johnson - Milk Man Blues (as Yas Yas Girl)
TTITLE17=Victoria Spivey and her Chicago Four - I Ain't Gonna Let You 
TTITLE17=See My Santa Claus
TTITLE18=Minnie Mathes - Ball Game Blues
TTITLE19=Lil Johnson - Was I?
TTITLE20=Victoria Spivey - My Handy Man (with Clarence Williams' Blue 
TTITLE20=Five)
TTITLE21=St. Louis Bessie - Streamline Blues (as Streamline Mae)
TTITLE22=Kansas Katie - Deep Sea Diver
TTITLE23=Blue Lu Barker - Don't You Feel My Leg (with Danny Barker's S
TTITLE23=extette)
TTITLE24=Stella Johnson - Hot Nuts Swing (with Dorothy Scott's Rhythm 
TTITLE24=Boys)
EXTD=YEAR: 2002
EXTT0=
EXTT1=
EXTT2=
EXTT3=
EXTT4=
EXTT5=
EXTT6=
EXTT7=
EXTT8=
EXTT9=
EXTT10=
EXTT11=
EXTT12=
EXTT13=
EXTT14=
EXTT15=
EXTT16=
EXTT17=
EXTT18=
EXTT19=
EXTT20=
EXTT21=
EXTT22=
EXTT23=
EXTT24=
PLAYORDER=
